<svg id="Layer_1" data-name="Layer 1" xmlns="http://www.w3.org/2000/svg" viewBox="0 0 400 300"><title>#29 bug fixed</title><ellipse cx="200.18" cy="237.88" rx="145" ry="20.72" fill="#e6e6e6" opacity="0.45"/><path d="M307.38,220s-10.13-2.72-12.38-12.14c0,0,15.68-3.24,16.2,13Z" fill="#00b5d8" opacity="0.58"/><path d="M308.62,219s-7.12-11.16-.94-21.64c0,0,12,7.53,6.72,21.64Z" fill="#00b5d8" opacity="0.73"/><path d="M310.45,219s3.68-11.83,15-14.11c0,0,2.15,7.66-7.25,14.11Z" fill="#00b5d8"/><polygon points="303.1 218.71 305.21 232.75 318.14 232.75 319.99 218.71 303.1 218.71" fill="#24285b"/><polygon points="180.85 174.65 169.85 231.98 223.51 231.98 212.51 174.65 180.85 174.65" fill="#c9c9c9"/><path d="M94.82,53.15h209.5a0,0,0,0,1,0,0V189.49a0,0,0,0,1,0,0H101.08a6.26,6.26,0,0,1-6.26-6.26V53.15A0,0,0,0,1,94.82,53.15Z" fill="#e6e6e6"/><rect x="162.51" y="226.32" width="68" height="11.57" fill="#e6e6e6"/><rect x="94.82" y="53.15" width="209.5" height="120.67" fill="#fff" opacity="0.56"/><path d="M99.94,104s5-4.13,6.56,3.6-1.2,17.46,4.41,24.1,26.16-15.05,36.55,21.38l4.2,4.14,14.69-12.38,22.4,8.53L225.51,146l9.34-38.71,5-4.64s18.25,30.85-10.22,57.19c0,0-20.22,17.41-52.8,4.33l-6.43-3.33-20.35,28.67-16.89-.21-15.33-25.13L98.12,125.82l-2.74-21.47Z" opacity="0.08"/><path d="M96.45,235.51s-1.79,2.19-.74,4.36-.64,3.91-2.27,2.37-2.11-7.76-2.11-7.76l3.06-1.64Z" fill="#00b5d8"/><path d="M115,129.13S127.68,129,132.68,141s5.5,31.17,5.5,31.17l23-15-26,25.22-10.36-13.23Z" fill="#00b5d8"/><path d="M115,129.13S127.68,129,132.68,141s5.5,31.17,5.5,31.17l23-15-26,25.22-10.36-13.23Z" fill="#fff" opacity="0.3"/><path d="M148.84,219.53s1.09,2.61,3.5,2.68,3.17,2.4,1,3.12-7.84-1.76-7.84-1.76l0-3.47Z" fill="#00b5d8"/><path d="M97.52,109.14a32.6,32.6,0,0,1,3.9,7.79,2.63,2.63,0,0,1-1.87,3.23,5.81,5.81,0,0,1-6.11-1.58l-3.61-3.22a4.71,4.71,0,0,1-.67-5.4C90.7,106.65,95.85,106.41,97.52,109.14Z" fill="#f4a28c"/><polygon points="91.46 115.24 93.85 129.5 103.53 129.95 97.9 118.8 91.46 115.24" fill="#f4a28c"/><path d="M99.24,112l2.27,1a.84.84,0,0,1,.19,1.4l-1.56,1.32Z" fill="#f4a28c"/><path d="M98.74,120.48a6.46,6.46,0,0,1-3.36-.71s.28,3.75,5,3.9Z" fill="#ce8172" opacity="0.31"/><path d="M74.64,140.64c11.21-14.49,36.92-16,49-7.72,11.95,8.21,6.21,56.77,6.21,56.77l-28.81,7.94S58.32,165.23,74.64,140.64Z" fill="#00b5d8"/><path d="M101.08,197.63l3.61,8.71a18.32,18.32,0,0,1-3.52,14.58l-9,11.59,5,3.55,13-10.38a22.77,22.77,0,0,0,8.6-17.73l0-4.46,4.83-11.55Z" fill="#24285b"/><path d="M87.77,136.5s13.84,5.57,12.58,19.8,3,23,25.23,22.18L122,191.82l-20.93,5.81h0a119.89,119.89,0,0,1-18.39-23l-1.36-2.2,6.55-18.85Z" opacity="0.08"/><path d="M101.08,197.63l13.45,9.77,17.79-5.51a6.66,6.66,0,0,1,8.43,4.79L144,220.23l6-.51-1.95-18.31a13.57,13.57,0,0,0-13.31-12.12h0a64.94,64.94,0,0,0-26.34,5.19Z" fill="#24285b"/><path d="M92.14,119.29l-.91-.6a26.79,26.79,0,0,0-8.38-3.45,3.59,3.59,0,0,1-1-.44,3,3,0,0,1-.39-4.77c2.1-2.09-1.26-2.72-.55-4.89.63-1.91,2.3-2.06,3.69-.62s3.78.34,2.73-1.37.41-3.08,2.83-2.5,2,3.58,3.95,1.17,4.51-2.84,5.11-.17,2.83,5.86-2.16,6.93-6.32-1.24-6.5,2.09C90.42,113.78,94.71,114.65,92.14,119.29Z" fill="#24285b"/><path d="M93.19,113.78s-1.88-1.6-3-.08,1.62,3.83,3.54,2.16Z" fill="#f4a28c"/><rect x="148.34" y="132.58" width="12.67" height="44.37" transform="translate(153.14 -64.04) rotate(44.58)" fill="#24285b"/><rect x="148.34" y="132.58" width="12.67" height="44.37" transform="translate(153.14 -64.04) rotate(44.58)" fill="#fff" opacity="0.3"/><rect x="124.42" y="150.65" width="20.84" height="49.67" transform="translate(161.98 -44.15) rotate(44.58)" fill="#24285b"/><path d="M227.6,81a45.42,45.42,0,1,0,.47,64.23A45.42,45.42,0,0,0,227.6,81ZM171.91,137.5a33.92,33.92,0,1,1,48-.35A33.92,33.92,0,0,1,171.91,137.5Z" fill="#ffd200"/><path d="M129.71,185l.93,4.71s8.38,1.41,9.92-3.94S131.31,182.33,129.71,185Z" fill="#f4a28c"/><path d="M89.66,137.59a9.89,9.89,0,0,0-13,1.29C68.93,147,59.45,170,70.93,185.19c14.37,19,34.05,12.38,59.71,4.54l-1.21-6.11s-47.85,6.44-42.62-14.21C91,153.06,96.63,142.83,89.66,137.59Z" fill="#00b5d8"/><path d="M89.66,137.59a9.89,9.89,0,0,0-13,1.29C68.93,147,59.45,170,70.93,185.19c14.37,19,34.05,12.38,59.71,4.54l-1.21-6.11s-47.85,6.44-42.62-14.21C91,153.06,96.63,142.83,89.66,137.59Z" fill="#fff" opacity="0.3"/><path d="M161.19,157.16c.2.3,9-1.52,6.13-6.21S159.21,154.18,161.19,157.16Z" fill="#f4a28c"/><path d="M193,104l-4-.65s.55-3.63-1.14-5.94a5,5,0,0,0-3.51-1.93l.58-3.95a8.88,8.88,0,0,1,6.17,3.54C193.82,98.73,193,103.77,193,104Z" fill="#00b5d8"/><path d="M173.66,111.08l-3.24-2.35c2.81-3.88,6.05-5.93,9.63-6.09,5.71-.25,9.84,4.49,10,4.69l-3,2.63s-3.12-3.52-6.85-3.32C177.91,106.75,175.71,108.24,173.66,111.08Z" fill="#00b5d8"/><path d="M176,124.7l-3.92-.79c.95-4.7,3-7.91,6.25-9.53,5-2.58,10.81,0,11.06.12l-1.67,3.63.83-1.82-.82,1.82s-4.29-1.88-7.61-.18C178.08,119,176.7,121.27,176,124.7Z" fill="#00b5d8"/><path d="M178.61,135.59c-.65-4.75.28-8.48,2.75-11.06,3.93-4.1,10.22-3.57,10.48-3.54l-.36,4s-4.67-.37-7.24,2.34c-1.58,1.66-2.14,4.26-1.66,7.73Z" fill="#00b5d8"/><path d="M198.92,102.78c0-.22-.84-5.25,1.84-8.93a8.91,8.91,0,0,1,6.17-3.55l.59,4A5,5,0,0,0,204,96.19c-1.69,2.31-1.14,5.9-1.14,5.94Z" fill="#00b5d8"/><path d="M220.1,109.88c-2-2.84-4.25-4.33-6.54-4.44-3.7-.18-6.82,3.28-6.85,3.31l-3-2.62c.18-.2,4.33-4.95,10-4.69,3.58.16,6.82,2.21,9.63,6.09Z" fill="#00b5d8"/><path d="M217.75,123.5c-.69-3.45-2.08-5.72-4.13-6.76-3.31-1.68-7.54.17-7.58.19l-1.67-3.64c.24-.11,6-2.69,11.06-.12,3.19,1.63,5.29,4.84,6.24,9.53Z" fill="#00b5d8"/><path d="M215.14,134.38l-4-.54c.48-3.48-.08-6.09-1.67-7.75-2.57-2.67-7.18-2.33-7.22-2.32l-.37-4c.26,0,6.55-.57,10.47,3.53C214.87,125.91,215.8,129.63,215.14,134.38Z" fill="#00b5d8"/><path d="M193,104l-4-.65s.55-3.63-1.14-5.94a5,5,0,0,0-3.51-1.93l.58-3.95a8.88,8.88,0,0,1,6.17,3.54C193.82,98.73,193,103.77,193,104Z" opacity="0.08"/><path d="M173.66,111.08l-3.24-2.35c2.81-3.88,6.05-5.93,9.63-6.09,5.71-.25,9.84,4.49,10,4.69l-3,2.63s-3.12-3.52-6.85-3.32C177.91,106.75,175.71,108.24,173.66,111.08Z" opacity="0.08"/><path d="M176,124.7l-3.92-.79c.95-4.7,3-7.91,6.25-9.53,5-2.58,10.81,0,11.06.12l-1.67,3.63.83-1.82-.82,1.82s-4.29-1.88-7.61-.18C178.08,119,176.7,121.27,176,124.7Z" opacity="0.08"/><path d="M178.61,135.59c-.65-4.75.28-8.48,2.75-11.06,3.93-4.1,10.22-3.57,10.48-3.54l-.36,4s-4.67-.37-7.24,2.34c-1.58,1.66-2.14,4.26-1.66,7.73Z" opacity="0.08"/><path d="M198.92,102.78c0-.22-.84-5.25,1.84-8.93a8.91,8.91,0,0,1,6.17-3.55l.59,4A5,5,0,0,0,204,96.19c-1.69,2.31-1.14,5.9-1.14,5.94Z" opacity="0.08"/><path d="M220.1,109.88c-2-2.84-4.25-4.33-6.54-4.44-3.7-.18-6.82,3.28-6.85,3.31l-3-2.62c.18-.2,4.33-4.95,10-4.69,3.58.16,6.82,2.21,9.63,6.09Z" opacity="0.08"/><path d="M217.75,123.5c-.69-3.45-2.08-5.72-4.13-6.76-3.31-1.68-7.54.17-7.58.19l-1.67-3.64c.24-.11,6-2.69,11.06-.12,3.19,1.63,5.29,4.84,6.24,9.53Z" opacity="0.08"/><path d="M215.14,134.38l-4-.54c.48-3.48-.08-6.09-1.67-7.75-2.57-2.67-7.18-2.33-7.22-2.32l-.37-4c.26,0,6.55-.57,10.47,3.53C214.87,125.91,215.8,129.63,215.14,134.38Z" opacity="0.08"/><ellipse cx="196.68" cy="113.85" rx="14.83" ry="17.83" fill="#00b5d8"/><ellipse cx="200.67" cy="107.58" rx="5.56" ry="6.69" transform="translate(-26.93 101.06) rotate(-26.56)" fill="#fff" opacity="0.3"/><circle cx="110.91" cy="65.41" r="4.41" fill="#24285b"/><circle cx="124.02" cy="65.41" r="4.41" fill="#00b5d8"/><circle cx="136.37" cy="65.41" r="4.41" fill="#ffd200"/><rect x="258.26" y="147.26" width="28" height="8.49" fill="#c9c9c9"/><rect x="258.26" y="74.32" width="28" height="60.06" fill="#c9c9c9" opacity="0.3"/></svg>